<?xml version="1.0" encoding="utf-8"?>
<!-- Generator: Adobe Illustrator 18.1.1, SVG Export Plug-In . SVG Version: 6.00 Build 0)  -->
<svg version="1.1" id="Layer_1" xmlns="http://www.w3.org/2000/svg" xmlns:xlink="http://www.w3.org/1999/xlink" x="0px" y="0px"
	 viewBox="0 0 841.9 595.3" enable-background="new 0 0 841.9 595.3" xml:space="preserve">
<path id="Circumfrence" fill="#FFFFFF" stroke="#EA5B0B" stroke-width="5" stroke-miterlimit="10" d="M228.7,285.8
	c0-105.6,85.6-191.2,191.2-191.2c105.6,0,191.2,85.6,191.2,191.2S525.5,477,419.9,477C314.3,477,228.7,391.4,228.7,285.8z"/>
<g>
	<path fill="#EA5B0B" d="M583.6,289.6c0,3-2.5,5.3-5.5,5.3c-3,0-5.3-2.5-5.3-5.5c0-3,2.5-5.3,5.5-5.3
		C581.2,284.2,583.6,286.6,583.6,289.6z"/>
</g>
<g id="Sushi">
	<g>
		<path fill="#EA5B0B" d="M544.1,360.2l2.1-3.7l23.6,13.4l-2.1,3.7L544.1,360.2z"/>
	</g>
	<g>
		<path fill="#EA5B0B" d="M502.1,436.9l-3.7,2.1l-13.7-23.4l3.7-2.1l5.9,10l4.2-2.4l-5.9-10l3.7-2.2l13.7,23.4l-3.7,2.2l-5.9-10
			l-4.2,2.4L502.1,436.9z"/>
	</g>
	<g>
		<path fill="#EA5B0B" d="M413.9,430.2c4.1,0.1,6.2,2.7,6.1,7l0,0.9l-4-0.1l0-1.1c0.1-1.9-0.7-2.7-2.1-2.7c-1.4,0-2.2,0.7-2.2,2.6
			c-0.2,5.6,8.1,6.9,7.9,14.6c-0.1,4.3-2.4,6.8-6.5,6.6c-4.2-0.1-6.3-2.7-6.2-7l0-1.7l4,0.1l-0.1,1.9c-0.1,1.9,0.8,2.7,2.1,2.7
			c1.4,0,2.2-0.6,2.3-2.6c0.2-5.6-8.1-6.9-7.9-14.6C407.6,432.5,409.8,430.1,413.9,430.2z"/>
	</g>
	<g>
		<path fill="#EA5B0B" d="M336.4,404.2l-11.5,17.5c-1.1,1.6-0.7,2.7,0.4,3.4c1.1,0.7,2.2,0.6,3.3-1l11.5-17.5l3.4,2.2l-11.3,17.3
			c-2.4,3.6-5.6,4.5-9.1,2.2c-3.5-2.3-3.9-5.6-1.6-9.2l11.3-17.3L336.4,404.2z"/>
	</g>
	<g>
		<path fill="#EA5B0B" d="M288.2,345.1c1.8,3.8,0.4,6.7-3.5,8.6l-0.8,0.4l-1.7-3.6l1-0.5c1.8-0.8,2.1-1.8,1.5-3.1
			c-0.6-1.2-1.6-1.6-3.3-0.8c-5.1,2.4-2.5,10.4-9.5,13.6c-3.9,1.8-7.1,0.9-8.9-2.9c-1.8-3.8-0.4-6.8,3.5-8.6l1.5-0.7l1.7,3.6
			L268,352c-1.8,0.8-2,1.9-1.4,3.1s1.6,1.7,3.3,0.9c5.1-2.4,2.5-10.4,9.5-13.6C283.3,340.5,286.5,341.4,288.2,345.1z"/>
	</g>
</g>
<g id="Juice">
	<g>
		<path fill="#EA5B0B" d="M559,205.8l2.8,5.1l-3.4,1.9l-2.8-5.1l-6.9,3.9l3.6,6.4l-3.4,1.9l-5.6-10.2l23.7-13.2l5.6,10.2l-3.4,1.9
			l-3.6-6.4L559,205.8z"/>
	</g>
	<g>
		<path fill="#EA5B0B" d="M499.4,152.9l-1.8,3.1c-2.1,3.8-5.2,4.9-8.9,2.8c-3.6-2.1-4.3-5.3-2.2-9.1l6.9-12.3
			c2.1-3.8,5.2-4.9,8.9-2.8c3.6,2.1,4.3,5.3,2.2,9.1l-1.3,2.3l-3.5-2l1.4-2.5c1-1.7,0.6-2.7-0.6-3.4c-1.2-0.7-2.3-0.4-3.2,1.2
			l-7.2,12.7c-1,1.7-0.6,2.7,0.6,3.4s2.3,0.5,3.2-1.2l1.9-3.4L499.4,152.9z"/>
	</g>
	<g>
		<path fill="#EA5B0B" d="M413.7,114l4.3-0.1l0.4,27.1l-4.3,0.1L413.7,114z"/>
	</g>
	<g>
		<path fill="#EA5B0B" d="M326.5,141.5l10.9,17.9c1,1.7,2.1,1.8,3.3,1.1c1.2-0.7,1.5-1.7,0.5-3.4l-10.9-17.9l3.4-2.1l10.7,17.6
			c2.3,3.7,1.7,7-1.9,9.1c-3.6,2.2-6.7,1.2-9-2.5l-10.7-17.6L326.5,141.5z"/>
	</g>
	<g>
		<path fill="#EA5B0B" d="M285.5,221.9c0.3-0.4,0.5-0.9,0.7-1.3c0.6-1.2,0.7-2.4-1.2-3.4l-18.3-9.7l2-3.8l18,9.5
			c4.8,2.5,4.7,5.8,3.2,8.6c-0.4,0.7-0.6,1.2-1,1.8L285.5,221.9z"/>
	</g>
</g>
<g>
	<path fill="#EA5B0B" d="M267.6,289.6c0,3-2.5,5.3-5.5,5.3c-3,0-5.3-2.5-5.3-5.5c0-3,2.5-5.3,5.5-5.3
		C265.2,284.2,267.6,286.6,267.6,289.6z"/>
</g>
<g id="Center">
	<path id="BlueBg" fill="#30383B" d="M292.4,285.8c0-70.4,57.1-127.4,127.4-127.4c70.4,0,127.4,57.1,127.4,127.4
		c0,70.4-57.1,127.4-127.4,127.4C349.5,413.3,292.4,356.2,292.4,285.8"/>
	<path id="Needles" fill="#FFFFFF" d="M419.9,158.4L419.9,158.4L419.9,158.4h-0.1h0h-0.1h0h-0.1h0h-0.1h0c0,0,0,0-0.1,0h0
		c0,0,0,0-0.1,0h0h-0.1h0h0h-0.1h0c-0.1,0-0.3,0-0.4,0l0.1,15c0.3,0,0.7,0,1,0V158.4z M412.7,158.6c-0.4,0-0.8,0-1.1,0.1l1,15
		c0.3,0,0.7,0,1-0.1L412.7,158.6z M405.6,159.2c-0.3,0-0.6,0.1-0.9,0.1c0,0,0,0,0,0c0,0,0,0,0,0c-0.1,0-0.1,0-0.2,0l1.8,14.9
		c0.3,0,0.7-0.1,1-0.1L405.6,159.2z M398.5,160.2C398.5,160.2,398.5,160.2,398.5,160.2C398.5,160.2,398.5,160.2,398.5,160.2
		C398.5,160.2,398.5,160.2,398.5,160.2c-0.3,0-0.4,0.1-0.6,0.1c0,0,0,0,0,0c0,0,0,0,0,0c-0.2,0-0.3,0.1-0.5,0.1l2.6,14.8
		c0.3-0.1,0.7-0.1,1-0.2L398.5,160.2z M391.5,161.6c-0.4,0.1-0.7,0.2-1.1,0.3l3.5,14.6c0.3-0.1,0.7-0.2,1-0.2L391.5,161.6z
		 M384.6,163.3c-0.1,0-0.2,0.1-0.3,0.1h0l-0.1,0c0,0,0,0,0,0c0,0,0,0-0.1,0c0,0,0,0,0,0c0,0,0,0,0,0c-0.1,0-0.2,0.1-0.3,0.1
		c0,0,0,0,0,0c0,0,0,0,0,0c-0.1,0-0.2,0.1-0.3,0.1l4.3,14.4c0.3-0.1,0.6-0.2,1-0.3L384.6,163.3z M377.8,165.5
		c-0.2,0.1-0.5,0.2-0.7,0.2c0,0,0,0,0,0c0,0,0,0-0.1,0c0,0,0,0,0,0c0,0,0,0-0.1,0c0,0,0,0,0,0c0,0,0,0,0,0c-0.1,0-0.2,0.1-0.2,0.1
		l5.1,14.1c0.3-0.1,0.6-0.2,1-0.3L377.8,165.5z M371.1,168.1c-0.1,0.1-0.3,0.1-0.4,0.2h0l-0.1,0c0,0,0,0,0,0c0,0,0,0,0,0
		c0,0,0,0,0,0l0,0c-0.1,0-0.2,0.1-0.3,0.1c0,0,0,0,0,0c0,0,0,0,0,0c0,0,0,0-0.1,0l0,0c0,0-0.1,0-0.1,0.1l5.9,13.8
		c0.3-0.1,0.6-0.3,0.9-0.4L371.1,168.1z M364.6,171c-0.3,0.2-0.7,0.3-1,0.5l6.6,13.4c0.3-0.1,0.6-0.3,0.9-0.4L364.6,171z
		 M358.2,174.3c-0.1,0.1-0.2,0.1-0.3,0.2c-0.2,0.1-0.4,0.2-0.7,0.4l0,0l0,0l7.4,13.1c0.3-0.2,0.6-0.3,0.9-0.5L358.2,174.3z
		 M352.1,177.9c-0.1,0.1-0.2,0.1-0.3,0.2c0,0,0,0,0,0c0,0-0.1,0-0.1,0.1c0,0,0,0,0,0c0,0-0.1,0-0.1,0.1c0,0,0,0,0,0
		c-0.2,0.1-0.3,0.2-0.4,0.3l8.1,12.6c0.3-0.2,0.6-0.4,0.9-0.5L352.1,177.9z M346.1,181.9c0,0-0.1,0.1-0.1,0.1c0,0,0,0,0,0
		c0,0,0,0,0,0c0,0,0,0-0.1,0c0,0,0,0,0,0c0,0,0,0,0,0l0,0c0,0,0,0-0.1,0c0,0,0,0,0,0c0,0,0,0,0,0l0,0l-0.1,0l0,0c0,0,0,0,0,0l0,0
		l-0.1,0c0,0,0,0,0,0c-0.1,0.1-0.2,0.2-0.3,0.2l8.8,12.1c0.3-0.2,0.5-0.4,0.8-0.6L346.1,181.9z M340.4,186.2
		c-0.1,0.1-0.3,0.2-0.4,0.3c-0.2,0.1-0.3,0.2-0.5,0.4l9.5,11.6c0.3-0.2,0.5-0.4,0.8-0.6L340.4,186.2z M335,190.8
		c0,0-0.1,0.1-0.1,0.1c0,0,0,0,0,0c0,0,0,0,0,0c-0.2,0.2-0.4,0.4-0.6,0.6c0,0,0,0,0,0c0,0,0,0,0,0c0,0,0,0-0.1,0l10.1,11.1
		c0.2-0.2,0.5-0.5,0.8-0.7L335,190.8z M329.8,195.7C329.8,195.7,329.7,195.8,329.8,195.7C329.7,195.8,329.7,195.8,329.8,195.7
		c-0.1,0.1-0.1,0.1-0.1,0.1c-0.2,0.2-0.4,0.4-0.6,0.6l0,0c0,0,0,0,0,0l-0.1,0.1l10.7,10.5c0.2-0.2,0.5-0.5,0.7-0.7L329.8,195.7z
		 M324.9,200.9C324.9,200.9,324.9,200.9,324.9,200.9C324.8,200.9,324.8,200.9,324.9,200.9C324.8,201,324.8,201,324.9,200.9
		c-0.1,0.1-0.1,0.1-0.1,0.1c0,0,0,0,0,0c0,0-0.1,0.1-0.1,0.1l0,0c0,0,0,0,0,0l0,0c0,0,0,0,0,0c0,0,0,0,0,0c0,0,0,0,0,0c0,0,0,0,0,0
		c0,0,0,0,0,0c0,0,0,0,0,0l0,0c-0.1,0.1-0.2,0.3-0.3,0.4c0,0,0,0,0,0c0,0,0,0,0,0l11.3,9.9c0.2-0.3,0.4-0.5,0.7-0.8L324.9,200.9z
		 M320.2,206.4c-0.2,0.3-0.5,0.6-0.7,0.9l11.8,9.3c0.2-0.3,0.4-0.5,0.6-0.8L320.2,206.4z M315.9,212.1c0,0-0.1,0.1-0.1,0.1
		c0,0,0,0,0,0c0,0,0,0,0,0c-0.2,0.3-0.4,0.5-0.5,0.8l12.3,8.6c0.2-0.3,0.4-0.6,0.6-0.8L315.9,212.1z M312,218
		c-0.1,0.2-0.3,0.5-0.4,0.7c0,0,0,0,0,0c0,0,0,0,0,0c0,0,0,0,0,0c0,0,0,0,0,0c0,0,0,0,0,0c0,0,0,0,0,0c0,0,0,0.1-0.1,0.1l12.8,7.9
		c0.2-0.3,0.4-0.6,0.5-0.9L312,218z M308.3,224.2c-0.2,0.3-0.4,0.7-0.6,1l13.2,7.2c0.2-0.3,0.3-0.6,0.5-0.9L308.3,224.2z M305,230.5
		c0,0.1,0,0.1-0.1,0.2c0,0,0,0,0,0c0,0,0,0,0,0.1c0,0,0,0,0,0c0,0,0,0,0,0c0,0,0,0,0,0c0,0,0,0,0,0.1l0,0c0,0,0,0,0,0c0,0,0,0,0,0
		c0,0,0,0,0,0c0,0,0,0,0,0c0,0,0,0,0,0c0,0,0,0,0,0c-0.1,0.2-0.2,0.3-0.2,0.5l13.6,6.4c0.1-0.3,0.3-0.6,0.4-0.9L305,230.5z
		 M302.1,237.1c-0.1,0.4-0.3,0.7-0.4,1.1l13.9,5.6c0.1-0.3,0.3-0.6,0.4-0.9L302.1,237.1z M299.6,243.7c-0.1,0.2-0.1,0.4-0.2,0.6
		c0,0,0,0,0,0l0,0c0,0,0,0,0,0c0,0,0,0,0,0.1c0,0,0,0,0,0c0,0,0,0,0,0c0,0,0,0,0,0c0,0,0,0,0,0.1c0,0,0,0,0,0c0,0,0,0,0,0
		c0,0,0,0,0,0c0,0,0,0,0,0.1l0,0c0,0,0,0,0,0c0,0,0,0,0,0l14.2,4.8c0.1-0.3,0.2-0.6,0.3-1L299.6,243.7z M297.4,250.5
		C297.4,250.6,297.4,250.6,297.4,250.5C297.4,250.6,297.4,250.6,297.4,250.5c0,0.1,0,0.1,0,0.2c0,0,0,0,0,0c0,0,0,0,0,0c0,0,0,0,0,0
		c0,0,0,0,0,0c0,0,0,0,0,0c0,0,0,0,0,0c0,0,0,0.1,0,0.1l0,0l-0.1,0.3l0,0c0,0,0,0,0,0c0,0.1-0.1,0.2-0.1,0.3l14.5,4
		c0.1-0.3,0.2-0.7,0.3-1L297.4,250.5z M295.6,257.5c-0.1,0.4-0.2,0.7-0.2,1.1l14.7,3.2c0.1-0.3,0.1-0.7,0.2-1L295.6,257.5z
		 M294.2,264.5c-0.1,0.3-0.1,0.6-0.2,0.9c0,0,0,0,0,0c0,0,0,0,0,0c0,0,0,0.1,0,0.1l14.8,2.4c0.1-0.3,0.1-0.7,0.2-1L294.2,264.5z
		 M293.2,271.6c0,0.4-0.1,0.8-0.1,1.1l14.9,1.5c0-0.3,0.1-0.7,0.1-1L293.2,271.6z M292.6,278.7c0,0.3,0,0.6,0,0.9c0,0,0,0,0,0v0
		c0,0.1,0,0.1,0,0.2l15,0.7c0-0.3,0-0.7,0.1-1L292.6,278.7z M292.4,285.8l15,0L292.4,285.8z M292.4,285.8l15,0L292.4,285.8
		L292.4,285.8L292.4,285.8v0.1v0v0.1v0v0v0v0c0,0,0,0,0,0.1v0v0v0v0v0c0,0,0,0,0,0.1v0v0v0v0l0,0.4l15-0.1c0-0.3,0-0.7,0-1
		L292.4,285.8z M307.6,292.2l-15,0.8c0,0.4,0,0.8,0.1,1.1l15-1C307.7,292.8,307.6,292.5,307.6,292.2 M308.1,298.4l-14.9,1.7
		c0,0.3,0.1,0.7,0.1,1c0,0,0,0,0,0c0,0,0,0,0,0c0,0,0,0,0,0.1l14.9-1.8C308.2,299.1,308.2,298.8,308.1,298.4 M309,304.7l-14.8,2.5
		c0.1,0.4,0.1,0.8,0.2,1.1l14.8-2.6C309.1,305.4,309.1,305,309,304.7 M310.2,310.9l-14.6,3.3c0,0.1,0.1,0.3,0.1,0.4l0,0
		c0,0,0,0,0,0.1c0,0,0,0,0,0c0,0,0,0,0,0c0,0,0,0.1,0,0.1c0,0,0,0,0,0c0,0,0,0,0,0c0,0,0,0,0,0c0,0,0,0,0,0.1c0,0,0,0,0,0
		c0,0,0,0,0,0c0,0.1,0,0.2,0.1,0.3l14.6-3.5C310.4,311.5,310.3,311.2,310.2,310.9 M311.8,317l-14.4,4.1c0,0.1,0.1,0.2,0.1,0.3l0,0
		c0,0,0,0,0,0c0,0,0,0,0,0c0,0,0,0,0,0c0,0,0,0,0,0c0,0,0,0,0,0c0.1,0.2,0.1,0.4,0.2,0.6l14.4-4.3C312,317.6,311.9,317.3,311.8,317
		 M313.7,323l-14.2,5c0.1,0.2,0.1,0.4,0.2,0.6c0,0,0,0,0,0c0,0,0,0,0,0c0.1,0.2,0.1,0.3,0.2,0.5l14.1-5.1
		C313.9,323.6,313.8,323.3,313.7,323 M316,328.9l-13.9,5.7c0,0.1,0.1,0.2,0.1,0.3c0,0,0,0,0,0c0,0,0,0,0,0c0.1,0.2,0.2,0.4,0.3,0.7
		c0,0,0,0,0,0c0,0,0,0,0,0c0,0,0,0,0,0l13.8-5.9C316.2,329.5,316.1,329.2,316,328.9 M318.5,334.6l-13.5,6.5c0.2,0.3,0.3,0.7,0.5,1
		l13.5-6.6C318.8,335.2,318.7,334.9,318.5,334.6 M321.4,340.2l-13.1,7.3c0.2,0.3,0.4,0.7,0.6,1l13.1-7.4
		C321.8,340.8,321.6,340.5,321.4,340.2 M324.6,345.7l-12.7,8c0,0.1,0.1,0.1,0.1,0.2c0,0,0,0,0,0c0,0,0,0,0,0
		c0.2,0.3,0.3,0.5,0.5,0.8l12.6-8.1C325,346.2,324.8,345.9,324.6,345.7 M328.2,350.9l-12.2,8.7c0.2,0.3,0.4,0.6,0.6,0.9c0,0,0,0,0,0
		c0,0,0,0,0,0c0,0,0,0,0,0l12.1-8.8C328.5,351.4,328.4,351.2,328.2,350.9 M332,355.9l-11.7,9.4c0.2,0.2,0.4,0.4,0.5,0.7c0,0,0,0,0,0
		c0,0,0,0,0,0c0.1,0.1,0.1,0.1,0.2,0.2l11.6-9.5C332.4,356.5,332.2,356.2,332,355.9 M336,360.8l-11.2,10c0.1,0.1,0.3,0.3,0.4,0.4
		c0,0,0,0,0,0c0,0,0,0,0,0l0.3,0.4l11.1-10.1C336.5,361.3,336.3,361,336,360.8 M340.4,365.3l-10.6,10.6c0,0,0,0,0,0
		c0.1,0.1,0.3,0.3,0.4,0.4c0,0,0,0,0,0c0,0,0,0,0,0c0,0,0,0,0,0c0,0,0,0,0,0c0,0,0,0,0,0c0,0,0,0,0,0l0,0c0,0,0,0,0,0c0,0,0,0,0,0
		c0,0,0,0,0,0l0,0c0,0,0,0,0,0c0,0,0,0,0,0c0,0,0,0,0,0c0,0,0,0,0,0c0,0,0,0,0,0l10.5-10.7C340.8,365.8,340.6,365.6,340.4,365.3
		 M344.9,369.7l-10,11.2c0.1,0.1,0.2,0.1,0.2,0.2l0,0c0,0,0,0,0,0c0.2,0.2,0.4,0.3,0.5,0.5c0,0,0,0,0,0c0,0,0,0,0,0c0,0,0,0,0,0
		l9.9-11.3C345.5,370.1,345.2,369.9,344.9,369.7 M349.8,373.8l-9.4,11.7c0.3,0.2,0.6,0.5,0.9,0.7l9.3-11.8
		C350.3,374.2,350,374,349.8,373.8 M354.8,377.6l-8.7,12.2c0,0,0.1,0,0.1,0.1c0.3,0.2,0.6,0.4,0.8,0.6l8.6-12.3
		C355.4,377.9,355.1,377.8,354.8,377.6 M360,381.1l-8,12.7c0,0,0.1,0.1,0.1,0.1c0,0,0,0,0,0c0,0,0,0,0,0c0,0,0,0,0,0c0,0,0,0,0,0
		l0.1,0c0.1,0.1,0.2,0.1,0.4,0.2c0,0,0,0,0,0c0,0,0,0,0.1,0c0,0,0,0,0,0c0,0,0,0,0,0c0,0,0,0,0,0c0,0,0,0,0,0c0.1,0,0.1,0.1,0.2,0.1
		l7.9-12.8C360.6,381.4,360.3,381.2,360,381.1 M365.5,384.3l-7.3,13.1c0,0,0.1,0,0.1,0c0,0,0,0,0,0c0,0,0,0,0,0
		c0.3,0.2,0.6,0.3,0.9,0.5c0,0,0,0,0,0l7.2-13.2C366.1,384.6,365.8,384.4,365.5,384.3 M371.1,387.2l-6.5,13.5c0.1,0,0.1,0.1,0.2,0.1
		c0,0,0,0,0,0c0,0,0,0,0.1,0c0,0,0,0,0,0l0,0c0,0,0,0,0,0c0,0,0,0,0,0c0,0,0,0,0,0c0,0,0,0,0,0c0,0,0,0,0,0c0,0,0,0,0,0c0,0,0,0,0,0
		c0,0,0,0,0,0c0,0,0,0,0,0c0,0,0,0,0,0c0.1,0.1,0.3,0.1,0.4,0.2l6.4-13.6C371.7,387.5,371.4,387.3,371.1,387.2 M376.8,389.8
		l-5.7,13.9c0.4,0.1,0.7,0.3,1.1,0.4l5.6-13.9C377.5,390,377.1,389.9,376.8,389.8 M382.7,392l-5,14.2c0.3,0.1,0.5,0.2,0.8,0.3
		c0,0,0,0,0,0c0.1,0,0.2,0.1,0.2,0.1l4.8-14.2C383.4,392.2,383,392.1,382.7,392 M388.7,393.9l-4.1,14.4c0.1,0,0.2,0,0.2,0.1l0,0
		c0,0,0,0,0,0c0.3,0.1,0.5,0.2,0.8,0.2l4-14.5C389.4,394.1,389,394,388.7,393.9 M394.8,395.5l-3.3,14.6c0.2,0,0.4,0.1,0.6,0.1
		c0,0,0,0,0,0c0,0,0,0,0,0c0.1,0,0.3,0.1,0.4,0.1l3.2-14.7C395.5,395.6,395.2,395.6,394.8,395.5 M401,396.7l-2.5,14.8
		c0.1,0,0.2,0,0.3,0h0c0,0,0,0,0.1,0c0,0,0,0,0,0c0,0,0,0,0,0c0.2,0,0.5,0.1,0.7,0.1l2.4-14.8C401.7,396.8,401.3,396.8,401,396.7
		 M407.2,397.6l-1.7,14.9c0,0,0,0,0.1,0c0.3,0,0.6,0.1,1,0.1c0,0,0.1,0,0.1,0l1.5-14.9C407.9,397.7,407.6,397.6,407.2,397.6
		 M413.5,398.1l-0.8,15c0.4,0,0.8,0,1.1,0.1l0.7-15C414.2,398.2,413.9,398.1,413.5,398.1 M419.9,398.3l0,15L419.9,398.3z
		 M419.9,398.3l0,15L419.9,398.3z M420.9,398.3c-0.3,0-0.7,0-1,0v15h0.1h0h0.1h0c0.3,0,0.7,0,1,0L420.9,398.3z M427.2,398.1
		c-0.3,0-0.7,0-1,0.1l0.8,15c0,0,0,0,0,0c0,0,0,0,0,0c0.4,0,0.7,0,1.1-0.1L427.2,398.1z M433.5,397.5c-0.3,0-0.7,0.1-1,0.1l1.7,14.9
		c0.4,0,0.7-0.1,1.1-0.1h0c0,0,0,0,0,0L433.5,397.5z M439.7,396.6c-0.3,0.1-0.7,0.1-1,0.2l2.5,14.8c0.4-0.1,0.8-0.1,1.1-0.2
		L439.7,396.6z M445.9,395.3c-0.3,0.1-0.7,0.2-1,0.2l3.3,14.6l0,0c0.2-0.1,0.5-0.1,0.7-0.2c0,0,0,0,0,0c0,0,0,0,0,0c0,0,0,0,0,0
		c0,0,0,0,0.1,0c0,0,0,0,0,0c0,0,0,0,0,0c0,0,0,0,0,0c0,0,0,0,0.1,0c0,0,0.1,0,0.1,0L445.9,395.3z M452,393.7
		c-0.3,0.1-0.6,0.2-1,0.3l4.1,14.4c0.4-0.1,0.7-0.2,1.1-0.3L452,393.7z M458,391.7c-0.3,0.1-0.6,0.2-1,0.3l5,14.2
		c0.3-0.1,0.6-0.2,0.9-0.3c0.1,0,0.1,0,0.2-0.1L458,391.7z M463.8,389.4c-0.3,0.1-0.6,0.3-0.9,0.4l5.7,13.9c0.1,0,0.1-0.1,0.2-0.1
		c0,0,0,0,0,0c0,0,0,0,0,0c0,0,0,0,0,0c0,0,0,0,0,0c0,0,0,0,0,0c0,0,0.1,0,0.1-0.1c0,0,0,0,0,0c0.2-0.1,0.4-0.2,0.6-0.2L463.8,389.4
		z M469.6,386.8c-0.3,0.2-0.6,0.3-0.9,0.4l6.5,13.5c0.1,0,0.2-0.1,0.3-0.2c0.2-0.1,0.5-0.2,0.7-0.4L469.6,386.8z M475.1,383.8
		c-0.3,0.2-0.6,0.3-0.9,0.5l7.3,13.1c0.3-0.2,0.6-0.3,0.8-0.5c0,0,0,0,0,0c0,0,0,0,0,0l0.1,0l0,0c0,0,0,0,0.1,0L475.1,383.8z
		 M480.5,380.6c-0.3,0.2-0.6,0.4-0.9,0.5l8,12.7l0.1-0.1c0,0,0,0,0,0c0,0,0,0,0,0c0.2-0.1,0.4-0.3,0.6-0.4c0,0,0.1,0,0.1-0.1
		c0,0,0,0,0,0c0,0,0,0,0,0h0c0,0,0.1,0,0.1-0.1L480.5,380.6z M485.7,377c-0.3,0.2-0.5,0.4-0.8,0.6l8.7,12.2c0,0,0.1,0,0.1-0.1h0
		c0,0,0.1-0.1,0.1-0.1c0,0,0,0,0,0c0.2-0.1,0.4-0.3,0.6-0.4c0,0,0,0,0,0c0,0,0,0,0,0c0,0,0,0,0.1,0L485.7,377z M490.8,373.2
		c-0.3,0.2-0.5,0.4-0.8,0.6l9.4,11.7c0.2-0.1,0.3-0.3,0.5-0.4l0,0c0,0,0,0,0,0c0.1-0.1,0.3-0.2,0.4-0.3L490.8,373.2z M495.5,369
		c-0.2,0.2-0.5,0.5-0.8,0.7l10,11.2c0.1-0.1,0.3-0.3,0.4-0.4v0c0.1-0.1,0.3-0.3,0.4-0.4L495.5,369z M500.1,364.7
		c-0.2,0.2-0.5,0.5-0.7,0.7L510,376c0.2-0.2,0.4-0.4,0.6-0.6c0,0,0,0,0,0c0,0,0,0,0,0l0.1-0.2L500.1,364.7z M504.4,360
		c-0.2,0.3-0.4,0.5-0.7,0.8l11.2,10c0.1-0.1,0.2-0.2,0.3-0.3c0,0,0,0,0,0c0,0,0,0,0,0c0.1-0.2,0.3-0.3,0.4-0.5L504.4,360z
		 M508.4,355.2c-0.2,0.3-0.4,0.5-0.6,0.8l11.7,9.4c0,0,0.1-0.1,0.1-0.1c0,0,0,0,0,0c0,0,0,0,0,0c0.2-0.2,0.4-0.5,0.6-0.7
		L508.4,355.2z M512.2,350.1c-0.2,0.3-0.4,0.6-0.6,0.8l12.2,8.7c0.2-0.3,0.4-0.6,0.7-0.9L512.2,350.1z M515.6,344.8
		c-0.2,0.3-0.4,0.6-0.5,0.9l12.7,8c0.1-0.1,0.2-0.3,0.3-0.4c0,0,0,0,0,0c0,0,0,0,0,0l0.3-0.5L515.6,344.8z M518.8,339.4
		c-0.2,0.3-0.3,0.6-0.5,0.9l13.1,7.3c0-0.1,0.1-0.1,0.1-0.2c0.1-0.2,0.2-0.4,0.3-0.5c0-0.1,0.1-0.2,0.1-0.3L518.8,339.4z
		 M521.7,333.8c-0.1,0.3-0.3,0.6-0.4,0.9l13.5,6.5c0.1-0.2,0.2-0.5,0.3-0.7c0-0.1,0.1-0.2,0.1-0.3L521.7,333.8z M524.2,328
		c-0.1,0.3-0.3,0.6-0.4,0.9l13.9,5.8c0,0,0-0.1,0.1-0.1c0,0,0,0,0,0c0,0,0,0,0,0c0.1-0.3,0.2-0.6,0.4-0.9L524.2,328z M526.4,322.1
		c-0.1,0.3-0.2,0.6-0.3,1l14.2,5c0.1-0.4,0.3-0.7,0.4-1.1L526.4,322.1z M528.2,316.1c-0.1,0.3-0.2,0.7-0.3,1l14.4,4.2
		c0,0,0-0.1,0-0.1c0,0,0,0,0,0c0,0,0,0,0,0c0,0,0,0,0,0c0,0,0,0,0,0c0,0,0,0,0,0c0,0,0,0,0,0c0,0,0,0,0,0c0,0,0,0,0,0c0,0,0,0,0-0.1
		c0,0,0,0,0,0c0,0,0,0,0,0c0,0,0,0,0,0c0,0,0,0,0-0.1c0,0,0,0,0,0c0,0,0,0,0,0c0,0,0,0,0,0c0,0,0,0,0-0.1c0,0,0,0,0,0c0,0,0,0,0,0
		c0,0,0,0,0,0c0-0.1,0.1-0.2,0.1-0.3L528.2,316.1z M529.8,309.9c-0.1,0.3-0.1,0.7-0.2,1l14.6,3.3c0-0.1,0.1-0.3,0.1-0.4v0
		c0,0,0,0,0,0c0,0,0,0,0,0c0,0,0,0,0,0c0-0.1,0.1-0.3,0.1-0.4c0,0,0,0,0,0c0,0,0,0,0,0c0-0.1,0-0.1,0-0.2L529.8,309.9z M530.9,303.7
		c-0.1,0.3-0.1,0.7-0.2,1l14.8,2.5c0-0.2,0.1-0.4,0.1-0.6c0,0,0,0,0,0c0,0,0-0.1,0-0.1l0,0c0-0.1,0-0.2,0.1-0.4L530.9,303.7z
		 M531.7,297.5c0,0.3-0.1,0.7-0.1,1l14.9,1.7c0-0.4,0.1-0.8,0.1-1.1L531.7,297.5z M532.2,291.2c0,0.3,0,0.7-0.1,1l15,0.8
		c0-0.1,0-0.2,0-0.3c0-0.3,0-0.6,0-0.9L532.2,291.2z M532.3,285.8l15,0L532.3,285.8z M532.3,285.9l15,0L532.3,285.9z M547.3,284.7
		l-15,0.1c0,0.3,0,0.7,0,1h15v-0.1v0v0v0v-0.1v0v-0.1v0C547.3,285.2,547.3,285,547.3,284.7 M547.1,277.6l-15,1c0,0.3,0,0.7,0.1,1
		l15-0.8C547.1,278.4,547.1,278,547.1,277.6 M546.4,270.5l-14.9,1.8c0,0.3,0.1,0.7,0.1,1l14.9-1.7c0-0.1,0-0.2,0-0.2c0,0,0,0,0,0
		c0,0,0,0,0,0C546.5,271.1,546.5,270.8,546.4,270.5L546.4,270.5C546.4,270.5,546.4,270.5,546.4,270.5
		C546.4,270.5,546.4,270.5,546.4,270.5 M545.4,263.4l-14.8,2.6c0.1,0.3,0.1,0.7,0.2,1l14.8-2.5c0,0,0,0,0,0c0,0,0,0,0,0
		c0-0.2-0.1-0.4-0.1-0.6c0,0,0,0,0,0c0,0,0,0,0,0c0,0,0,0,0,0c0,0,0,0,0,0C545.4,263.7,545.4,263.5,545.4,263.4 M543.9,256.4
		l-14.6,3.5c0.1,0.3,0.2,0.7,0.2,1l14.6-3.3C544.1,257.2,544,256.8,543.9,256.4 M542.1,249.5l-14.4,4.3c0.1,0.3,0.2,0.6,0.3,1
		l14.4-4.1c0,0,0,0,0-0.1c0-0.1-0.1-0.2-0.1-0.3c0,0,0,0,0,0c0,0,0,0,0,0c0,0,0,0,0,0c0,0,0,0,0,0c0,0,0,0,0-0.1v0
		C542.2,249.9,542.1,249.7,542.1,249.5C542.1,249.6,542.1,249.5,542.1,249.5 M539.8,242.7l-14.1,5.1c0.1,0.3,0.2,0.6,0.3,1l14.2-4.9
		c0-0.1-0.1-0.2-0.1-0.3c0,0,0,0,0,0c0,0,0,0,0,0C540,243.2,539.9,243,539.8,242.7 M537.2,236l-13.8,5.9c0.1,0.3,0.3,0.6,0.4,0.9
		l13.9-5.7c-0.1-0.2-0.1-0.3-0.2-0.5c0,0,0,0,0,0c0,0,0,0,0,0c0-0.1-0.1-0.2-0.1-0.3c0,0,0,0,0,0c0,0,0,0,0,0L537.2,236z
		 M534.3,229.6l-13.5,6.6c0.2,0.3,0.3,0.6,0.4,0.9l13.5-6.5c-0.1-0.1-0.1-0.3-0.2-0.4c0,0,0,0,0,0c0,0,0,0,0,0c0,0,0,0,0,0
		c0,0,0,0,0,0c0,0,0,0,0,0c0,0,0,0,0,0c0,0,0,0,0-0.1c0,0,0,0,0,0c0,0,0,0,0-0.1c0,0,0,0,0,0c0,0,0-0.1-0.1-0.1c0,0,0,0,0,0
		C534.3,229.7,534.3,229.7,534.3,229.6C534.3,229.6,534.3,229.6,534.3,229.6C534.3,229.6,534.3,229.6,534.3,229.6L534.3,229.6z
		 M530.9,223.2l-13.1,7.4c0.2,0.3,0.3,0.6,0.5,0.9l13.1-7.3c0-0.1-0.1-0.2-0.1-0.2c0,0,0,0,0,0c0,0,0,0,0,0
		C531.2,223.7,531.1,223.5,530.9,223.2 M527.2,217.1l-12.6,8.1c0.2,0.3,0.4,0.6,0.5,0.9l12.7-8c-0.1-0.1-0.1-0.2-0.2-0.3
		c0,0,0,0,0,0c0,0,0-0.1-0.1-0.1c0,0,0,0,0,0c0,0,0,0,0,0c0,0,0,0,0,0c0,0,0,0,0,0c0,0,0,0,0,0c0,0,0,0,0,0c0,0,0,0,0-0.1l0,0
		C527.4,217.3,527.3,217.2,527.2,217.1 M523.2,211.2L511,220c0.2,0.3,0.4,0.5,0.6,0.8l12.2-8.7C523.6,211.8,523.4,211.5,523.2,211.2
		 M518.8,205.5l-11.6,9.5c0.2,0.3,0.4,0.5,0.6,0.8l11.7-9.4c-0.1-0.1-0.1-0.1-0.2-0.2c0,0,0,0,0,0c0,0-0.1-0.1-0.1-0.1l0,0
		c-0.1-0.1-0.2-0.3-0.4-0.4c0,0,0,0,0,0c0,0,0,0,0,0C518.9,205.6,518.9,205.6,518.8,205.5L518.8,205.5
		C518.9,205.6,518.9,205.5,518.8,205.5 M514.2,200.1l-11.1,10.1c0.2,0.2,0.5,0.5,0.7,0.8l11.2-10
		C514.7,200.7,514.4,200.4,514.2,200.1 M509.2,195l-10.5,10.7c0.2,0.2,0.5,0.5,0.7,0.7l10.6-10.6c-0.2-0.2-0.4-0.4-0.7-0.7
		C509.3,195,509.3,195,509.2,195 M504,190.1l-9.9,11.3c0.3,0.2,0.5,0.4,0.8,0.7l10-11.2C504.6,190.6,504.3,190.3,504,190.1
		 M498.5,185.5l-9.3,11.8c0.3,0.2,0.5,0.4,0.8,0.6l9.4-11.7c0,0,0,0,0,0c0,0,0,0,0,0c0,0,0,0,0,0c0,0,0,0,0,0h0
		C499,185.9,498.8,185.7,498.5,185.5 M492.7,181.3l-8.6,12.3c0.3,0.2,0.6,0.4,0.8,0.6l8.7-12.2c0,0-0.1,0-0.1-0.1c0,0,0,0,0,0
		c0,0,0,0,0,0C493.3,181.6,493,181.5,492.7,181.3 M486.8,177.3l-7.9,12.8c0.3,0.2,0.6,0.4,0.9,0.5l8-12.7c0,0-0.1-0.1-0.1-0.1l0,0
		c0,0,0,0-0.1,0c0,0,0,0,0,0c0,0,0,0,0,0C487.3,177.7,487,177.5,486.8,177.3 M480.6,173.8l-7.2,13.2c0.3,0.2,0.6,0.3,0.9,0.5
		l7.3-13.1c-0.1,0-0.2-0.1-0.2-0.1l0,0c0,0,0,0,0,0c-0.1-0.1-0.3-0.2-0.4-0.2c0,0,0,0,0,0c0,0,0,0,0,0
		C480.8,173.8,480.7,173.8,480.6,173.8 M474.2,170.5l-6.4,13.6c0.3,0.1,0.6,0.3,0.9,0.4l6.5-13.5c-0.1,0-0.2-0.1-0.3-0.1
		c-0.1-0.1-0.3-0.1-0.4-0.2c0,0,0,0,0,0c0,0,0,0-0.1,0c0,0,0,0,0,0c0,0,0,0,0,0C474.4,170.6,474.3,170.6,474.2,170.5 M467.7,167.7
		l-5.6,13.9c0.3,0.1,0.6,0.3,0.9,0.4l5.8-13.9c0,0,0,0,0,0c-0.3-0.1-0.6-0.2-0.8-0.3c0,0,0,0,0,0l0,0L467.7,167.7z M461,165.2
		l-4.8,14.2c0.3,0.1,0.6,0.2,1,0.3l5-14.2c-0.2-0.1-0.4-0.1-0.6-0.2c0,0,0,0,0,0l0,0c0,0,0,0,0,0c0,0,0,0,0,0c0,0,0,0-0.1,0
		c0,0,0,0,0,0c0,0,0,0,0,0c0,0,0,0,0,0c0,0,0,0-0.1,0c0,0,0,0,0,0c0,0,0,0,0,0c0,0,0,0,0,0C461.1,165.2,461.1,165.2,461,165.2
		C461,165.2,461,165.2,461,165.2C461,165.2,461,165.2,461,165.2C461,165.2,461,165.2,461,165.2 M454.1,163.1l-4,14.5
		c0.3,0.1,0.7,0.2,1,0.3l4.2-14.4c-0.3-0.1-0.6-0.2-0.8-0.2h0c0,0,0,0-0.1,0c0,0,0,0,0,0c0,0,0,0,0,0
		C454.2,163.1,454.2,163.1,454.1,163.1 M447.2,161.3L444,176c0.3,0.1,0.7,0.1,1,0.2l3.3-14.6c-0.2,0-0.3-0.1-0.5-0.1l0,0
		c0,0,0,0,0,0C447.6,161.4,447.4,161.4,447.2,161.3 M440.2,160l-2.4,14.8c0.3,0.1,0.7,0.1,1,0.2l2.5-14.8c-0.3-0.1-0.6-0.1-0.9-0.2
		h0c0,0,0,0,0,0C440.3,160,440.2,160,440.2,160 M433.1,159.1l-1.5,14.9c0.3,0,0.7,0.1,1,0.1l1.7-14.9
		C433.8,159.2,433.5,159.1,433.1,159.1 M425.9,158.5l-0.7,15c0.3,0,0.7,0,1,0.1l0.8-15c-0.3,0-0.6,0-0.9,0c0,0,0,0,0,0h0
		C426.1,158.5,426,158.5,425.9,158.5 M419.9,158.4v15h0.1L419.9,158.4L419.9,158.4z"/>
	<g id="ZERO">
		<path id="Z" fill="#FFFFFF" d="M330,248.1c8.8-13.4,20-24.1,32.5-32v3.8c-8.1,49.7-15.6,90.9-22.3,116.8c1.1,1.2,2.3,2.3,3.4,3.5
			c4.2,4.1,8.1,4,10.8-1.2c3-5.9,4-10.2,6-25.1c0.7,0.2,1.4,0.4,2.1,0.5c-0.3,14.6-0.5,29.1-0.8,43.6c-12.8-8.3-24.1-19.5-32.9-33.6
			v-2c5.5-15.1,12.1-47.9,19.3-92.1c-1.5,1.3-3,2.7-4.5,4.1c-4.5,4.4-7.9,12.2-9.7,20.2c-1.3,5.4-1.7,8.2-2.3,15.1
			c-0.5,0.3-1,0.6-1.5,0.9V248.1z"/>
		<path id="E" fill="#FFFFFF" d="M370.2,211.7c13.2-6.9,27.6-10.9,42.1-12.1v42.2c-0.8,0-1.5,0.1-2.3,0.1c-0.8-11.2-1.3-15.9-3-21.7
			c-0.8-3.5-2-6.6-3.3-8.9c-2-3.5-4.8-5.2-7.6-4.6c-1.6,0.4-3.2,0.7-4.9,1.2v72c1,0,1.9,0,2.9-0.1c5.8-0.1,9.6-7.5,9.5-19.8v-4.9
			c0.8,0,1.5-0.1,2.3-0.1v56.1c-0.8,0-1.5-0.1-2.3-0.1v-4.4c0-14.7-3.1-22.4-9-22.3c-1.1,0-2.3,0-3.4,0v82.3c1.4,0.4,2.8,0.7,4.2,1
			c7.7,1.8,12.9-12.2,15.5-41.3c0.7,0,1.4,0.1,2.2,0.1v48.6c-14.9-1.1-29.5-5.2-43-12.3v-4c1.8,0.9,3.6,1.7,5.4,2.5v-148
			c-1.8,0.8-3.6,1.6-5.4,2.5V211.7z"/>
		<path id="R" fill="#FFFFFF" d="M418.5,199c11-0.3,22,1,32.7,3.8c11,3.3,18.4,22.3,18.4,42.6c0,20.1-4.8,30.5-16.3,35.1
			c0.3,0.1,0.7,0.2,1,0.3c10.5,3.2,14.2,10.6,14.3,26.6v41.9c0.1,1.4,0.2,2.9,0.2,4.3c0,1.7,1.1,3.2,2,2.8c1.7-0.8,2.6-4.5,2.8-11.2
			c0.7,0,1.5,0,2.2,0c-0.9,12.9-3.7,19.5-10.6,22.5c-7.8,3.4-12.7-7-12.7-26.9v-43.2c0-9.2-2.7-14.8-7.1-14.9c-1.5,0-2.9,0-4.4,0
			v86.5c2-0.3,3.9-0.7,5.8-1.1v4.6c-9.3,2.1-18.8,3-28.3,2.8v-4.7c2,0.1,4,0.1,5.9,0v-167c-2,0-4,0-5.9,0V199z M441,205.2v72.9
			c1.7,0,3.5,0.1,5.2,0.1c3.8,0.1,6.3-6.7,6.3-16.4v-33c0-14.2-1.9-21.6-6.6-22.7C444.3,205.8,442.7,205.5,441,205.2"/>
		<path id="O" fill="#FFFFFF" d="M497.4,227.4c11.9,14.3,17.2,38.6,17.3,58.8c0,13.3-1.5,23.6-5,35.7c-3.1,10.2-7.3,19.8-12.6,24.9
			c-6.4,6.4-12.9,2.9-17.2-11.4c-2.9-10.3-4.4-26.7-4.4-50.1c-0.1-45.2,9.7-70.9,21.5-58.3C497.2,227.2,497.3,227.3,497.4,227.4
			 M502.4,245.8c0-6.9-1.7-12.6-5.2-15.9c-3.4-3.2-5.3,0.6-5.3,10.8v93.6c0,10.2,1.8,13.3,5.6,9.7c3.4-3.2,4.9-8.8,4.9-17.1V245.8z"
			/>
	</g>
</g>
</svg>
